<svg width="63" height="20" viewBox="0 0 63 20" fill="none" xmlns="http://www.w3.org/2000/svg">
<path d="M62.0257 5.72507H60.3453C60.4467 2.50918 59.2444 0.597032 56.8832 0.336285H56.3762C53.2483 0.0120778 50.0992 -0.0557497 46.9603 0.133481C39.7173 0.292827 37.7472 0.78535 36.0668 2.06012C35.8089 2.27291 35.5885 2.52755 35.415 2.81339C35.2996 2.66837 35.1504 2.55396 34.9804 2.48021L34.285 2.21946C33.7201 1.98769 33.1551 1.75591 32.5902 1.56759C31.9932 1.36772 31.3474 1.36772 30.7505 1.56759L29.2294 2.16152L28.5776 2.42227C28.3661 2.49386 28.1766 2.61856 28.0271 2.78442C27.8536 2.49857 27.6332 2.24394 27.3752 2.03114C25.6949 0.756378 23.7972 0.263855 16.4818 0.104509C13.3429 -0.0847217 10.1937 -0.0168941 7.06589 0.307313L6.54439 0.350771C4.18318 0.611518 2.98084 2.52367 3.08224 5.72507H1.4743C1.2822 5.72507 1.09797 5.80138 0.962142 5.93721C0.82631 6.07304 0.75 6.25727 0.75 6.44937C0.753709 6.6403 0.831209 6.82239 0.966246 6.95742C1.10128 7.09246 1.28336 7.16996 1.4743 7.17367H3.08224H3.21262C3.6472 10.1433 4.82056 15.0685 6.54439 17.1255C8.26822 19.1825 14.3958 19.6896 14.6421 19.704H15.4388C17.3654 19.704 22.2182 19.4433 24.3477 16.8068L24.5939 16.5026C26.3557 14.5215 27.6174 12.1471 28.2734 9.57834C28.6113 8.42987 28.7917 7.2408 28.8093 6.04376C28.8739 6.00989 28.9326 5.96587 28.9832 5.91339L29.0556 5.82647C29.1501 5.61279 29.1803 5.3762 29.1425 5.14563V5.01526V4.42133V4.08815C29.1425 3.76946 29.2294 3.68255 29.3453 3.6246L29.664 3.47974L30.2579 3.20451C30.9219 2.91154 31.652 2.80137 32.3728 2.88542C33.0936 2.96947 33.7788 3.24468 34.3575 3.68255C34.3575 3.68255 34.5313 3.78395 34.5313 4.08815V4.62414C34.4538 5.07378 34.4836 5.53538 34.6182 5.97133V6.07273C34.6641 6.1284 34.7178 6.17719 34.7776 6.21759C34.8086 7.33746 34.9889 8.44818 35.3136 9.5204C35.9608 12.1125 37.2116 14.5149 38.964 16.5316L39.2103 16.8213C41.3397 19.4288 46.1925 19.7185 48.1192 19.7185H48.9014C49.1622 19.7185 55.1738 19.4143 57.0136 17.14C58.8533 14.8657 59.9108 10.1143 60.3308 7.11572C60.3933 7.12392 60.4567 7.12392 60.5192 7.11572H62.0257C62.2166 7.11202 62.3987 7.03451 62.5338 6.89948C62.6688 6.76444 62.7463 6.58236 62.75 6.39143C62.7354 6.20954 62.6527 6.03987 62.5184 5.91633C62.3841 5.79279 62.2082 5.72449 62.0257 5.72507ZM27.5346 9.36105C26.9227 11.8592 25.7206 14.1741 24.029 16.1115L23.7682 16.4302C21.378 19.3274 14.7435 19.0232 14.671 19.0087C14.5986 18.9942 8.73178 18.719 7.09486 16.7054C5.45794 14.6919 4.19766 9.56386 3.86449 6.56526C3.6472 4.2475 3.90794 1.37928 6.64579 1.06058H7.1528C8.90162 0.843942 10.664 0.756788 12.4257 0.799836C13.4977 0.799836 14.8304 0.799836 16.4673 0.799836C23.7103 0.959182 25.4631 1.45171 26.9407 2.58161C27.3107 2.9029 27.5777 3.32615 27.7084 3.79843C27.6298 4.50025 27.7398 5.21033 28.0271 5.85544C28.0489 7.04264 27.8826 8.22581 27.5346 9.36105ZM59.5776 6.60871C59.2589 9.50591 57.9696 14.7064 56.3472 16.7489C54.7248 18.7914 48.829 19.0522 48.771 19.0522C48.7131 19.0522 42.064 19.3853 39.6738 16.4592L39.4131 16.1695C37.7305 14.2204 36.5297 11.9031 35.9075 9.40451C35.6038 8.40766 35.4334 7.37503 35.4005 6.33348C35.6612 6.08722 35.7916 5.47881 35.7047 3.94329C35.8404 3.44159 36.1169 2.98921 36.5014 2.63956C37.95 1.50965 39.7607 1.01713 46.9748 0.85778C50.0797 0.659014 53.1959 0.726864 56.2893 1.06058H56.7963C59.5341 1.37928 59.8238 4.2475 59.5776 6.60871Z" fill="#333333"/>
</svg>
