<svg width="63" height="22" viewBox="0 0 63 22" fill="none" xmlns="http://www.w3.org/2000/svg">
<path d="M61.3765 9.77628H59.9397C60.1265 9.3165 60.3133 8.85672 60.457 8.33947C61.5633 5.00605 61.6495 2.86519 60.7156 1.61516C59.6092 0.178344 57.2385 0.0921346 54.4798 0.178344C48.0179 0.358686 41.6946 2.09352 36.0454 5.23594C35.3304 5.65315 34.7554 6.27323 34.3931 7.01759C33.9598 6.59454 33.4441 6.26523 32.878 6.05018C32.3119 5.83512 31.7077 5.73891 31.1028 5.76756C30.4979 5.73891 29.8936 5.83512 29.3275 6.05018C28.7615 6.26523 28.2457 6.59454 27.8125 7.01759C27.4656 6.28111 26.9113 5.6619 26.2176 5.23594C20.5504 2.10689 14.2119 0.39163 7.74013 0.235816C4.98144 0.149607 2.61069 0.235816 1.50434 1.67263C0.570413 2.92266 0.656622 5.06352 1.76297 8.39694C1.90665 8.85672 2.09344 9.3165 2.28023 9.83376H0.843408C0.652875 9.83376 0.470145 9.90945 0.335417 10.0442C0.200689 10.1789 0.125 10.3616 0.125 10.5522C0.125 10.7427 0.200689 10.9254 0.335417 11.0602C0.470145 11.1949 0.652875 11.2706 0.843408 11.2706H2.42391C2.58142 11.2687 2.73354 11.2129 2.85495 11.1125C4.8665 15.2793 8.4298 19.5035 12.9127 21.1702C14.4643 21.7541 16.1319 21.9635 17.7798 21.7812C19.4276 21.599 21.0091 21.0302 22.3957 20.1214C25.0254 18.4018 26.9601 15.8053 27.8556 12.7936C28.324 11.4677 28.4765 10.0508 28.301 8.65557L28.8182 8.10957C29.1199 7.81904 29.4789 7.59482 29.8724 7.4513C30.2658 7.30778 30.6849 7.24815 31.1028 7.27622C31.5228 7.24877 31.9439 7.30865 32.3395 7.45209C32.7352 7.59552 33.0969 7.81939 33.4017 8.10957L33.9333 8.6843C33.7651 10.0654 33.9175 11.4666 34.3787 12.7792C35.2742 15.791 37.2089 18.3875 39.8386 20.107C41.2252 21.0159 42.8067 21.5846 44.4545 21.7668C46.1024 21.9491 47.77 21.7398 49.3216 21.1559C53.8189 19.5179 57.3822 15.2937 59.3793 11.0982C59.5008 11.1985 59.6529 11.2543 59.8104 11.2562H61.4053C61.5958 11.2562 61.7785 11.1805 61.9132 11.0458C62.048 10.9111 62.1237 10.7283 62.1237 10.5378C62.1298 10.4374 62.1148 10.3369 62.0796 10.2427C62.0444 10.1485 61.9898 10.0627 61.9194 9.99093C61.849 9.91915 61.7643 9.86296 61.6707 9.82598C61.5772 9.78901 61.477 9.77207 61.3765 9.77628ZM27.1946 12.4919C26.3521 15.3434 24.524 17.8029 22.0365 19.4317C20.7415 20.2843 19.2626 20.8174 17.7215 20.9873C16.1803 21.1571 14.6209 20.9588 13.1713 20.4087C7.92692 18.4978 4.00441 12.8942 2.43828 8.10957C1.4325 5.06352 1.30319 3.08071 2.07907 2.04621C2.85495 1.0117 4.37798 0.925489 6.30331 0.925489H7.74013C14.0717 1.0998 20.2675 2.80033 25.8009 5.88251C26.4514 6.26993 26.9563 6.86068 27.2377 7.56358L27.0797 7.736C26.9481 7.87029 26.8743 8.05084 26.8743 8.23889C26.8743 8.42693 26.9481 8.60748 27.0797 8.74177C27.2167 8.87931 27.4028 8.95682 27.5969 8.9573C27.6895 10.1504 27.5529 11.3501 27.1946 12.4919ZM49.0343 20.4087C47.5847 20.9588 46.0252 21.1571 44.4841 20.9873C42.9429 20.8174 41.4641 20.2843 40.1691 19.4317C37.6815 17.8029 35.8534 15.3434 35.0109 12.4919C34.6455 11.3661 34.4945 10.1818 34.5655 9.0004C34.653 9.0022 34.7399 8.98661 34.8213 8.95455C34.9027 8.92248 34.9769 8.87458 35.0397 8.81361C35.107 8.74683 35.1604 8.66737 35.1969 8.57983C35.2334 8.49228 35.2522 8.39838 35.2522 8.30355C35.2522 8.20871 35.2334 8.11481 35.1969 8.02726C35.1604 7.93972 35.107 7.86026 35.0397 7.79348L34.8529 7.59232C35.1308 6.87989 35.6358 6.27894 36.2897 5.88251C41.8616 2.7802 48.1043 1.07901 54.4798 0.925489H55.9166C57.8419 0.925489 59.4225 1.14101 60.1409 2.10368C60.8593 3.06635 60.7874 5.121 59.7817 8.16705C58.2012 12.8942 54.2786 18.4978 49.0343 20.4087Z" fill="#333333"/>
</svg>
