<svg width="63" height="26" viewBox="0 0 63 26" fill="none" xmlns="http://www.w3.org/2000/svg">
<path d="M61.9924 11.7948H60.2652C60.0514 8.89444 58.846 6.15595 56.8515 4.03932C54.8571 1.92269 52.195 0.556855 49.3124 0.171207C46.4298 -0.21444 43.5023 0.403595 41.0216 1.92151C38.5409 3.43943 36.6581 5.76476 35.6894 8.50695L35.25 8.02211C34.7867 7.57712 34.2371 7.23189 33.6351 7.00777C33.0331 6.78365 32.3915 6.68539 31.75 6.71908C31.0934 6.68107 30.4363 6.78602 29.8242 7.02669C29.2121 7.26735 28.6595 7.63799 28.2045 8.11301L27.7955 8.52211C26.8213 5.79231 24.9395 3.47976 22.4646 1.97124C19.9897 0.462725 17.0719 -0.15028 14.1992 0.234758C11.3265 0.619796 8.67308 1.97953 6.6828 4.08653C4.69251 6.19353 3.48603 8.92002 3.26515 11.81H1.50758C1.30665 11.81 1.11396 11.8898 0.971889 12.0319C0.829816 12.1739 0.75 12.3666 0.75 12.5676C0.75 12.7685 0.829816 12.9612 0.971889 13.1032C1.11396 13.2453 1.30665 13.3251 1.50758 13.3251H3.23485C3.39527 16.6253 4.83729 19.7325 7.254 21.9855C9.67071 24.2385 12.8713 25.4594 16.1745 25.3883C19.4778 25.3172 22.6229 23.9598 24.9404 21.6049C27.258 19.25 28.565 16.0836 28.5833 12.7797C28.5808 11.8306 28.4689 10.885 28.25 9.9615C28.3946 9.93011 28.5265 9.85625 28.6288 9.74938L29.3409 9.02211C29.6666 8.73195 30.0486 8.5122 30.4632 8.37662C30.8777 8.24104 31.3158 8.19256 31.75 8.23423C32.1862 8.19671 32.6256 8.24711 33.042 8.38244C33.4584 8.51778 33.8434 8.73529 34.1742 9.02211L34.9015 9.80998C35.0106 9.92408 35.1545 9.99869 35.3106 10.0221C34.8893 11.7503 34.8368 13.5478 35.1563 15.2977C35.4759 17.0475 36.1605 18.7104 37.1654 20.1782C38.1704 21.6459 39.4732 22.8855 40.989 23.8162C42.5049 24.747 44.1997 25.348 45.9633 25.5803C47.7269 25.8125 49.5196 25.6706 51.2247 25.164C52.9298 24.6574 54.5091 23.7973 55.8597 22.6397C57.2103 21.4822 58.302 20.0531 59.0637 18.4457C59.8253 16.8382 60.2399 15.0883 60.2803 13.31H61.9924C62.1933 13.31 62.386 13.2302 62.5281 13.0881C62.6702 12.946 62.75 12.7533 62.75 12.5524C62.75 12.3515 62.6702 12.1588 62.5281 12.0167C62.386 11.8746 62.1933 11.7948 61.9924 11.7948ZM15.9015 24.7039C13.5431 24.7039 11.2377 24.0046 9.27676 22.6943C7.31583 21.3841 5.78747 19.5218 4.88495 17.3429C3.98243 15.164 3.74629 12.7665 4.20639 10.4534C4.66649 8.1403 5.80217 6.0156 7.4698 4.34797C9.13744 2.68033 11.2621 1.54466 13.5752 1.08456C15.8883 0.624461 18.2859 0.8606 20.4647 1.76312C22.6436 2.66564 24.5059 4.194 25.8162 6.15493C27.1264 8.11586 27.8258 10.4213 27.8258 12.7797C27.8217 15.941 26.5642 18.9716 24.3288 21.207C22.0934 23.4423 19.0628 24.6999 15.9015 24.7039ZM47.6288 24.7039C45.2704 24.7039 42.965 24.0046 41.004 22.6943C39.0431 21.3841 37.5147 19.5218 36.6122 17.3429C35.7097 15.164 35.4736 12.7665 35.9337 10.4534C36.3938 8.1403 37.5294 6.0156 39.1971 4.34797C40.8647 2.68033 42.9894 1.54466 45.3025 1.08456C47.6156 0.624461 50.0131 0.8606 52.192 1.76312C54.3709 2.66564 56.2332 4.194 57.5434 6.15493C58.8537 8.11586 59.553 10.4213 59.553 12.7797C59.549 15.941 58.2914 18.9716 56.0561 21.207C53.8207 23.4423 50.7901 24.6999 47.6288 24.7039Z" fill="#333333"/>
</svg>
