<svg width="63" height="23" viewBox="0 0 63 23" fill="none" xmlns="http://www.w3.org/2000/svg">
<path d="M62.3257 4.45979C62.2018 4.44507 62.0766 4.44507 61.9526 4.45979C60.963 4.40816 60.0049 4.09395 59.1769 3.54947C58.5203 3.13162 57.8637 2.72869 57.1772 2.37053C56.4663 1.99435 55.7338 1.66049 54.9835 1.37067C53.5322 0.891965 52.0295 0.586407 50.5065 0.460355C48.266 0.169749 45.9904 0.316725 43.8059 0.893129C40.8593 1.47265 38.182 2.99728 36.1802 5.2358C36.0486 5.11199 35.8903 5.02009 35.7175 4.96718L34.852 4.68364C34.0909 4.51948 33.4044 4.28071 32.703 4.07178C31.9826 3.85609 31.2148 3.85609 30.4944 4.07178C29.8527 4.25086 29.2259 4.45979 28.6141 4.66872L27.7634 4.93733C27.548 4.99982 27.3458 5.10096 27.1665 5.2358C25.1924 3.06092 22.5804 1.56686 19.7049 0.967746C17.5204 0.391341 15.2448 0.244366 13.0043 0.534971C11.4814 0.661023 9.97862 0.966581 8.52735 1.44529C7.77775 1.72539 7.04524 2.04928 6.33363 2.4153C5.64716 2.77346 4.99054 3.17639 4.33391 3.59424C3.5059 4.13872 2.54784 4.45292 1.55819 4.50456C1.43426 4.48984 1.30903 4.48984 1.18511 4.50456C1.05978 4.51957 0.944994 4.58213 0.864459 4.67933C0.783924 4.77653 0.743786 4.90094 0.752332 5.02687C0.752332 5.98196 0.752332 6.93705 0.752332 7.89214C0.738923 8.04532 0.783683 8.19794 0.877704 8.31961C0.971725 8.44128 1.10811 8.5231 1.25972 8.54876C1.56807 8.59256 1.852 8.741 2.06392 8.96922C2.27584 9.19745 2.40287 9.49158 2.42374 9.80232C2.66251 10.8917 2.88636 11.9811 3.14005 13.0556C3.68824 15.6417 4.93768 18.027 6.75148 19.9501C7.7794 21.0316 9.09426 21.7978 10.542 22.1588C12.6639 22.7229 14.8806 22.8347 17.0485 22.4871C19.049 22.1812 20.9513 21.4156 22.6059 20.2503C24.2606 19.0851 25.6224 17.552 26.5845 15.7716C27.6952 13.6591 28.3701 11.345 28.5693 8.96661C28.5993 8.72379 28.5993 8.4782 28.5693 8.23537L28.3604 7.72798V7.69814C28.3752 7.49944 28.3752 7.29991 28.3604 7.10121V6.80274C28.3469 6.75472 28.3432 6.70449 28.3495 6.65501C28.3558 6.60554 28.3719 6.55782 28.397 6.51469C28.422 6.47156 28.4554 6.43389 28.4953 6.40391C28.5351 6.37392 28.5806 6.35223 28.629 6.34012L29.1215 6.14612L29.6139 5.90735C30.4737 5.59422 31.3922 5.47597 32.3033 5.56114C33.2143 5.6463 34.095 5.93276 34.8818 6.39981C35.0161 6.39981 35.1057 6.54905 35.1057 6.80274C35.1057 7.05644 35.1057 7.1609 35.1057 7.33998C35.0917 7.50882 35.0917 7.67853 35.1057 7.84737L34.9714 8.17568C34.9414 8.41851 34.9414 8.6641 34.9714 8.90692C35.1689 11.2809 35.844 13.5904 36.9562 15.697C38.182 17.9627 40.0445 19.82 42.3136 21.0395C43.6222 21.7251 45.0334 22.1939 46.4921 22.4274C48.66 22.775 50.8768 22.6632 52.9987 22.0991C54.4442 21.7328 55.7577 20.9674 56.7892 19.8904C58.5657 17.9651 59.7833 15.5917 60.3111 13.0257C60.5648 11.9513 60.7886 10.8619 61.0274 9.77247C61.0547 9.46704 61.1847 9.17985 61.396 8.95766C61.6074 8.73547 61.8877 8.59135 62.1914 8.54876C62.3484 8.5336 62.4935 8.45839 62.5964 8.33882C62.6993 8.21925 62.752 8.06457 62.7436 7.90706C62.7436 6.95197 62.7436 5.99689 62.7436 5.02687C62.7541 4.96211 62.7517 4.89588 62.7363 4.83209C62.7209 4.76829 62.6929 4.70821 62.654 4.65538C62.6151 4.60255 62.566 4.55804 62.5096 4.52445C62.4532 4.49086 62.3907 4.46887 62.3257 4.45979ZM26.5099 13.1899C25.9936 15.5401 24.6938 17.645 22.8238 19.1592C20.4434 21.067 17.4723 22.0855 14.422 22.0394C13.5123 22.0503 12.6034 21.9804 11.706 21.8305C10.3639 21.6097 9.09437 21.0703 8.0038 20.2576C6.91323 19.4448 6.03344 18.3824 5.43824 17.1595C4.14142 14.7696 3.52219 12.0708 3.64744 9.35462C3.70469 7.63572 4.34698 5.98787 5.46808 4.68364C6.62789 3.42145 8.11602 2.50687 9.76598 2.04222C11.4568 1.54886 13.2133 1.31735 14.9742 1.35575C17.0138 1.30117 19.0436 1.65639 20.9435 2.40038C22.5278 2.9411 23.9745 3.82233 25.1817 4.9821C25.9507 5.76919 26.4699 6.76605 26.674 7.84737C27.0457 9.61586 26.9894 11.4476 26.5099 13.1899ZM57.9681 17.0401C57.3729 18.2631 56.4931 19.3255 55.4026 20.1382C54.312 20.9509 53.0424 21.4903 51.7004 21.7111C50.8146 21.8792 49.9157 21.9691 49.0142 21.9797C45.9639 22.0258 42.9929 21.0073 40.6124 19.0995C38.7424 17.5853 37.4426 15.4804 36.9263 13.1302C36.4176 11.395 36.3306 9.56332 36.6726 7.78768C36.8767 6.70636 37.3959 5.7095 38.165 4.92241C39.3712 3.73262 40.83 2.82981 42.433 2.28099C44.3329 1.537 46.3627 1.18178 48.4023 1.23636C50.1632 1.19797 51.9197 1.42947 53.6105 1.92283C55.282 2.37734 56.792 3.29264 57.9681 4.56425C59.0784 5.87255 59.71 7.51999 59.7589 9.23523C59.8842 11.9514 59.2649 14.6502 57.9681 17.0401Z" fill="#333333"/>
</svg>
