<svg width="140" height="37" viewBox="0 0 140 37" fill="none" xmlns="http://www.w3.org/2000/svg">
<g clip-path="url(#clip0_12069_217200)">
<g clip-path="url(#clip1_12069_217200)">
<path d="M137.742 15.8129H135.484V12.629C135.484 6.87097 130.832 0.412903 124.623 0.412903H87.6581C81.4258 0.412903 76.7968 6.84839 76.7968 12.629C76.7968 12.9677 76.7968 13.3516 76.7968 13.7129C74.7194 12.6516 72.4161 12.0871 70.0226 12.0871C67.629 12.0871 65.3258 12.6516 63.2484 13.7129C63.2484 13.3516 63.2484 12.9677 63.2484 12.629C63.2484 6.87097 58.5968 0.412903 52.3871 0.412903H15.3774C9.16774 0.435483 4.51613 6.87097 4.51613 12.6516V15.8355H2.25806C1.01613 15.8355 0 16.8516 0 18.0935C0 19.3355 1.01613 20.3516 2.25806 20.3516H4.56129C5.03548 29.3839 12.5097 36.5871 21.6548 36.5871H47.4194C59.5677 36.5871 62.3677 27.4194 63.0226 19.3581C66.9968 15.8129 73.0032 15.8129 76.9774 19.3581C77.6323 27.3968 80.4323 36.5871 92.5806 36.5871H118.345C127.49 36.5871 134.965 29.3839 135.439 20.3516H137.742C138.984 20.3516 140 19.3355 140 18.0935C140 16.8516 138.984 15.8355 137.742 15.8355V15.8129ZM47.4194 32.0484H21.6548C14.7 32.0484 9.03226 26.3806 9.03226 19.4258V12.6516C9.03226 9.17419 11.8774 4.95161 15.3774 4.95161H52.3419C55.8645 4.95161 58.6871 9.15161 58.6871 12.6516C58.6871 27.171 55.8419 32.0484 47.3968 32.0484H47.4194ZM130.968 19.4258C130.968 26.3806 125.3 32.0484 118.345 32.0484H92.5806C84.1355 32.0484 81.2903 27.1484 81.2903 12.6516C81.2903 9.17419 84.1355 4.95161 87.6355 4.95161H124.6C128.123 4.95161 130.945 9.15161 130.945 12.6516V19.4258H130.968Z" fill="#090B0B"/>
</g>
</g>
<defs>
<clipPath id="clip0_12069_217200">
<rect width="140" height="37" fill="white"/>
</clipPath>
<clipPath id="clip1_12069_217200">
<rect width="140" height="36.1742" fill="white" transform="translate(0 0.412903)"/>
</clipPath>
</defs>
</svg>
