<svg width="141" height="46" viewBox="0 0 141 46" fill="none" xmlns="http://www.w3.org/2000/svg">
<g clip-path="url(#clip0_12069_217198)">
<path d="M138.536 15.4618H136.278V10.9442C136.278 4.95837 131.399 0.0793762 125.413 0.0793762H88.4363C82.4505 0.0793762 77.5716 4.95837 77.5716 10.9442V13.3611C75.4935 12.2994 73.1895 11.7347 70.7952 11.7347C68.4009 11.7347 66.0969 12.2994 64.0188 13.3611V10.9442C64.0188 4.95837 59.1398 0.0793762 53.154 0.0793762H16.1324C10.1466 0.0793762 5.26759 4.95837 5.26759 10.9442V15.4618H3.00879C1.76646 15.4618 0.75 16.4782 0.75 17.7206C0.75 18.9629 1.76646 19.9793 3.00879 19.9793H5.26759V22.577C5.26759 35.4973 15.5451 45.2552 29.1882 45.2552H40.053C53.6961 45.2552 63.9736 35.4973 63.9736 22.577V18.8274C67.8813 15.5069 73.6187 15.5069 77.5264 18.8274V22.577C77.5264 35.4973 87.8039 45.2552 101.447 45.2552H112.312C125.955 45.2552 136.232 35.4973 136.232 22.577V19.9793H138.491C139.734 19.9793 140.75 18.9629 140.75 17.7206C140.75 16.4782 139.734 15.4618 138.491 15.4618H138.536ZM59.4786 22.577C59.4786 32.9222 51.1437 40.7377 40.0756 40.7377H29.2108C18.1427 40.7377 9.80776 32.9222 9.80776 22.577V10.9442C9.80776 7.44304 12.6538 4.59696 16.155 4.59696H53.1314C56.6325 4.59696 59.4786 7.44304 59.4786 10.9442V22.577ZM131.76 22.577C131.76 32.9222 123.425 40.7377 112.357 40.7377H101.492C90.4241 40.7377 82.0891 32.9222 82.0891 22.577V10.9442C82.0891 7.44304 84.9352 4.59696 88.4363 4.59696H125.413C128.914 4.59696 131.76 7.44304 131.76 10.9442V22.577Z" fill="#090B0B"/>
</g>
<defs>
<clipPath id="clip0_12069_217198">
<rect width="140" height="45.1759" fill="white" transform="translate(0.75 0.0793762)"/>
</clipPath>
</defs>
</svg>
