<svg width="140" height="60" viewBox="0 0 140 60" fill="none" xmlns="http://www.w3.org/2000/svg">
<path d="M137.742 25.0441H135.37C135.257 25.0441 135.167 25.0893 135.054 25.1119C134.489 21.792 133.383 18.5398 131.666 15.5135C127.804 8.69309 121.503 3.7923 113.96 1.69196C98.3546 -2.62164 82.1616 6.57017 77.848 22.1759C77.7351 22.605 77.6448 23.0567 77.5544 23.4858C72.9247 20.7305 67.0979 20.7079 62.4456 23.4858C62.3552 23.0567 62.2649 22.6276 62.152 22.1985C57.8384 6.57017 41.6228 -2.62164 26.0397 1.69196C18.4739 3.76972 12.1955 8.69309 8.3336 15.5135C6.6172 18.5398 5.51057 21.792 4.94596 25.1345C4.83304 25.1345 4.72012 25.0667 4.58461 25.0667H2.25843C1.01629 25.0667 0 26.083 0 27.3251C0 28.5673 1.01629 29.5836 2.25843 29.5836H4.51686C4.47169 32.3388 4.81045 35.0941 5.57832 37.8268C9.16922 50.8128 21.0034 59.3722 33.8764 59.3722C36.451 59.3722 39.0708 59.0335 41.6906 58.3108C49.2563 56.233 55.5348 51.3096 59.3967 44.4892C62.1971 39.5658 63.4393 34.0778 63.1683 28.5673C67.0527 25.0893 72.9473 25.1119 76.8317 28.5898C76.5607 34.1004 77.8255 39.5658 80.6033 44.4892C84.4652 51.3096 90.7663 56.2104 98.3094 58.3108C100.907 59.0335 103.526 59.3722 106.124 59.3722C118.997 59.3722 130.831 50.8354 134.422 37.8268C135.167 35.0941 135.506 32.3388 135.483 29.5836H137.742C138.984 29.5836 140 28.5673 140 27.3251C140 26.083 138.984 25.0667 137.742 25.0667V25.0441ZM55.467 42.2308C52.1923 48.0123 46.8624 52.1453 40.471 53.9294C27.2818 57.5655 13.5732 49.7965 9.9145 36.6073C8.15293 30.2159 8.96596 23.5084 12.2407 17.7494C15.5154 11.9678 20.8453 7.83489 27.2367 6.05073C29.4499 5.44095 31.6632 5.14736 33.8313 5.14736C44.7169 5.14736 54.7443 12.3743 57.7932 23.3729C59.5548 29.7642 58.7417 36.4718 55.467 42.2308ZM130.063 36.6073C126.404 49.8191 112.696 57.5881 99.5064 53.9294C93.115 52.1678 87.7851 48.0123 84.5104 42.2308C81.2357 36.4718 80.4001 29.7642 82.1842 23.3729C85.8429 10.1837 99.529 2.39207 112.741 6.05073C119.132 7.8123 124.462 11.9678 127.737 17.7494C131.011 23.5084 131.847 30.2159 130.063 36.6073Z" fill="#090B0B"/>
</svg>
