<svg width="141" height="50" viewBox="0 0 141 50" fill="none" xmlns="http://www.w3.org/2000/svg">
<g clip-path="url(#clip0_12069_217206)">
<g clip-path="url(#clip1_12069_217206)">
<path d="M138.242 21.7032H136.706C138.829 17.5935 142.239 9.50967 139.371 4.38387C137.813 1.58387 134.81 0.161285 130.474 0.161285C116.339 0.161285 82.2871 6.07741 77.7484 19.8968C75.5355 18.6774 73.0516 18 70.4548 18C67.8581 18 65.3742 18.6548 63.1613 19.8968C58.6903 6.07741 24.6387 0.161285 10.5032 0.161285C6.16774 0.161285 3.1871 1.58387 1.60645 4.38387C-1.26129 9.50967 2.14839 17.5935 4.27097 21.7032H2.75806C1.51613 21.7032 0.5 22.7193 0.5 23.9613C0.5 25.2032 1.51613 26.2193 2.75806 26.2193H6.98064C11.0677 32.3387 23.9839 49.8387 37.9613 49.8387C52.6839 49.8387 62.7548 39.9935 63.6355 25.1355C67.5645 21.7258 73.4129 21.7258 77.3645 25.1355C78.2452 39.9935 88.3387 49.8387 103.039 49.8387C117.739 49.8387 129.932 32.3387 134.019 26.2193H138.242C139.484 26.2193 140.5 25.2032 140.5 23.9613C140.5 22.7193 139.484 21.7032 138.242 21.7032ZM37.9613 45.3226C23.9161 45.3226 9.66774 22.0645 9.50968 21.8161C7.3871 18.3387 3.61613 10.0516 5.55806 6.57419C6.25806 5.30967 7.92903 4.67741 10.5032 4.67741C27.6194 4.67741 59.2097 12.2419 59.2097 22.9903C59.2097 33.7387 53.6323 45.3226 37.9613 45.3226ZM103.039 45.3226C87.3677 45.3226 81.7903 33.7839 81.7903 22.9903C81.7903 12.1968 113.403 4.67741 130.497 4.67741C133.071 4.67741 134.742 5.30967 135.442 6.57419C137.316 9.89354 133.997 17.6839 131.468 21.8161C131.332 22.0419 117.084 45.3 103.016 45.3L103.039 45.3226Z" fill="#090B0B"/>
</g>
</g>
<defs>
<clipPath id="clip0_12069_217206">
<rect width="141" height="50" fill="white"/>
</clipPath>
<clipPath id="clip1_12069_217206">
<rect width="140" height="49.6774" fill="white" transform="translate(0.5 0.161285)"/>
</clipPath>
</defs>
</svg>
