<svg width="141" height="55" viewBox="0 0 141 55" fill="none" xmlns="http://www.w3.org/2000/svg">
<g clip-path="url(#clip0_12069_217209)">
<path d="M138.22 20.2979H134.923C131.627 8.85139 120.723 0.407593 107.763 0.407593C104.467 0.407593 99.1615 0.972018 91.9594 2.05571C89.2276 2.4621 86.699 3.50064 84.509 5.0133C84.351 4.96815 84.193 4.92299 84.0349 4.92299H56.9425C56.7619 4.92299 56.6264 4.99072 56.4684 5.0133C54.301 3.50064 51.7498 2.4621 49.018 2.05571C41.8159 0.949441 36.4877 0.407593 33.2141 0.407593C20.2549 0.407593 9.35019 8.85139 6.05394 20.2979H2.7577C1.51597 20.2979 0.5 21.3139 0.5 22.5556C0.5 23.7974 1.51597 24.8133 2.7577 24.8133H5.15086C5.06055 25.6938 5.0154 26.5969 5.0154 27.5C5.0154 42.446 17.6585 54.5924 33.2141 54.5924C46.9861 54.5924 57.7779 35.2891 60.758 29.3513C61.0741 28.7417 61.3225 28.1322 61.5482 27.5L62.6319 24.4747C62.7674 24.3844 62.9254 24.3166 63.0609 24.1812C67.1699 20.0722 73.8301 20.0722 77.9391 24.1812C78.0746 24.3166 78.2101 24.3844 78.3681 24.4747L79.4518 27.5C79.6776 28.1322 79.9485 28.7417 80.242 29.3513C83.2221 35.2665 94.014 54.5924 107.786 54.5924C123.341 54.5924 135.985 42.446 135.985 27.5C135.985 26.5969 135.939 25.6938 135.849 24.8133H138.242C139.484 24.8133 140.5 23.7974 140.5 22.5556C140.5 21.3139 139.484 20.2979 138.242 20.2979H138.22ZM58.5003 22.5782L57.2812 25.9873C57.1231 26.4615 56.9199 26.8904 56.7167 27.342C51.4337 37.8403 42.1094 50.0996 33.2141 50.0996C20.1646 50.0996 9.5308 39.9625 9.5308 27.5226C9.5308 15.0826 20.1646 4.92299 33.2141 4.92299C36.262 4.92299 41.3644 5.46484 48.3407 6.52596C52.2239 7.11296 55.5653 9.32551 57.5069 12.5766C59.3357 15.6245 59.6969 19.2594 58.5003 22.5782ZM63.693 18.2434C63.6253 15.4665 62.8577 12.7121 61.3902 10.2737C61.2096 9.98024 61.0289 9.7319 60.8258 9.46097H80.1517C79.9711 9.7319 79.7679 10.0028 79.5872 10.2737C78.1197 12.7346 77.3521 15.4665 77.2844 18.2434C75.2073 17.1823 72.8819 16.6179 70.4887 16.6179C68.0956 16.6179 65.7701 17.1823 63.693 18.2434ZM107.763 50.077C98.868 50.077 89.5437 37.8177 84.2607 27.3194C84.0349 26.8678 83.8543 26.4389 83.6963 25.9648L82.4771 22.5556C81.3031 19.2368 81.6643 15.6019 83.4705 12.554C85.4121 9.30293 88.7535 7.09039 92.6368 6.50338C99.6131 5.44226 104.715 4.90042 107.763 4.90042C120.813 4.90042 131.447 15.0375 131.447 27.4774C131.447 39.9174 120.813 50.0544 107.763 50.0544V50.077Z" fill="#090B0B"/>
</g>
<defs>
<clipPath id="clip0_12069_217209">
<rect width="141" height="55" fill="white"/>
</clipPath>
</defs>
</svg>
