<svg width="140" height="48" viewBox="0 0 140 48" fill="none" xmlns="http://www.w3.org/2000/svg">
<g clip-path="url(#clip0_12069_217207)">
<path d="M137.99 5.18937C132.761 2.96952 117.122 -0.440232 104.593 0.639691C89.1036 2.00959 81.3342 5.83932 81.3442 5.83932C80.1843 6.21929 77.3645 7.19922 76.3845 8.10916C75.3346 9.07909 74.7147 12.3789 74.4447 14.1687C71.5549 13.1488 68.4251 13.0388 65.4753 13.8188C65.1753 11.9789 64.5654 9.00909 63.5855 8.10916C62.6055 7.19922 59.7857 6.21929 58.6258 5.83932C58.6358 5.83932 50.8764 2.00959 35.3775 0.639691C22.8684 -0.430233 7.22948 2.97952 1.99986 5.18937C0.789944 5.69933 0 6.90924 0 8.27915V12.8988C0 14.2487 0.719949 15.4586 1.83987 15.9886C3.31976 16.6885 4.10971 17.8185 4.06971 19.1684C4.06971 19.3184 4.04971 19.5183 4.01971 19.7283C3.92972 20.6083 3.80973 21.7082 4.35969 22.2781C4.87965 22.7981 6.39954 23.0381 7.28948 23.1281C8.06942 27.5478 10.4193 34.1773 15.1089 40.7068C17.6687 44.2666 23.8483 46.1464 26.7581 46.6464C28.9979 47.0264 32.1777 47.5663 35.6775 47.5663C41.2971 47.5663 47.7566 46.1764 52.5762 40.5168C57.3159 34.9572 59.2758 29.0477 60.0857 24.778C61.0056 24.738 61.7556 24.028 61.8156 23.1081C61.8556 22.4881 61.9056 21.7482 61.9456 21.0182C61.9456 21.0182 61.9656 21.0182 61.9756 20.9982C66.0753 16.8985 72.7448 16.8985 76.8545 20.9982C77.1945 21.3382 77.6245 21.5082 78.0744 21.5982C78.1044 22.1282 78.1444 22.6481 78.1744 23.1081C78.2344 24.028 78.9944 24.738 79.9043 24.778C80.7142 29.0477 82.6741 34.9672 87.4138 40.5168C92.2434 46.1764 98.703 47.5663 104.313 47.5663C107.812 47.5663 110.992 47.0264 113.232 46.6464C116.142 46.1564 122.331 44.2666 124.881 40.7068C129.571 34.1773 131.921 27.5478 132.711 23.1281C133.6 23.0381 135.12 22.7981 135.64 22.2781C136.19 21.7182 136.07 20.6183 135.98 19.7283C135.96 19.5083 135.94 19.3184 135.93 19.1684C135.89 17.8185 136.68 16.6885 138.16 15.9886C139.28 15.4586 140 14.2487 140 12.8988V8.27915C140 6.91924 139.22 5.69933 138 5.18937H137.99ZM49.0565 37.5171C43.4069 44.1466 34.9875 43.3466 27.538 42.0867C24.3883 41.5468 20.1786 39.8369 18.8687 38.007C13.2691 30.2176 11.9391 23.3781 11.6192 20.7683C11.8892 8.44913 18.1087 8.31914 27.438 8.16915C28.568 8.14915 29.6579 8.13915 30.7678 8.09916C41.0671 8.25915 44.4468 8.8491 48.1066 10.099C52.1863 12.0089 53.6962 13.7388 54.7861 17.7785L55.606 23.3781V23.4581C54.9761 27.1378 53.3162 32.5274 49.0765 37.5171H49.0565ZM121.121 38.007C119.811 39.8369 115.602 41.5468 112.452 42.0867C105.003 43.3566 96.5831 44.1466 90.9335 37.5171C86.6838 32.5374 85.0339 27.1478 84.384 23.4581V23.3781L85.2139 17.7785C86.2938 13.7388 87.8137 12.0189 91.8934 10.099C95.5532 8.8491 98.9229 8.25915 109.232 8.09916C110.342 8.13915 111.432 8.14915 112.562 8.16915C121.891 8.30914 128.111 8.43913 128.381 20.7683C128.061 23.3781 126.721 30.2176 121.131 38.007H121.121Z" fill="#090B0B"/>
</g>
<defs>
<clipPath id="clip0_12069_217207">
<rect width="140" height="47.1327" fill="white" transform="translate(0 0.433655)"/>
</clipPath>
</defs>
</svg>
