<svg width="25" height="24" viewBox="0 0 25 24" fill="none" xmlns="http://www.w3.org/2000/svg">
<g clip-path="url(#clip0_9663_8571)">
<path d="M1.8999 21C1.8999 21.8297 2.57021 22.5 3.3999 22.5H10.8999V15H1.8999V21ZM13.8999 22.5H21.3999C22.2296 22.5 22.8999 21.8297 22.8999 21V15H13.8999V22.5ZM22.8999 7.5H20.9265C21.2171 6.93281 21.3999 6.30469 21.3999 5.625C21.3999 3.35156 19.5483 1.5 17.2749 1.5C15.3249 1.5 14.064 2.49844 12.4468 4.70156C10.8296 2.49844 9.56865 1.5 7.61865 1.5C5.34521 1.5 3.49365 3.35156 3.49365 5.625C3.49365 6.30469 3.67178 6.93281 3.96709 7.5H1.8999C1.07021 7.5 0.399902 8.17031 0.399902 9V12.75C0.399902 13.1625 0.737402 13.5 1.1499 13.5H23.6499C24.0624 13.5 24.3999 13.1625 24.3999 12.75V9C24.3999 8.17031 23.7296 7.5 22.8999 7.5ZM7.61396 7.5C6.57803 7.5 5.73897 6.66094 5.73897 5.625C5.73897 4.58906 6.57803 3.75 7.61396 3.75C8.54678 3.75 9.23584 3.90469 11.6499 7.5H7.61396ZM17.2749 7.5H13.239C15.6483 3.91406 16.3187 3.75 17.2749 3.75C18.3108 3.75 19.1499 4.58906 19.1499 5.625C19.1499 6.66094 18.3108 7.5 17.2749 7.5Z" fill="#005769"/>
</g>
<defs>
<clipPath id="clip0_9663_8571">
<rect width="24" height="24" fill="white" transform="translate(0.399902)"/>
</clipPath>
</defs>
</svg>
