<svg width="25" height="24" viewBox="0 0 25 24" fill="none" xmlns="http://www.w3.org/2000/svg">
<path d="M0.950463 0H6.95032C7.19875 0 7.43312 0.126562 7.57374 0.332812L11.3752 6.03281C9.05496 6.225 6.96907 7.23281 5.39411 8.76562L0.32704 1.16719C0.172356 0.9375 0.158294 0.642187 0.289541 0.398438C0.420788 0.154688 0.673907 0 0.950463 0ZM24.0734 1.16719L19.0063 8.77031C17.436 7.2375 15.3454 6.22969 13.0252 6.0375L16.8266 0.332812C16.9673 0.121875 17.2016 0 17.4501 0H23.4499C23.7265 0 23.9796 0.15 24.1109 0.398438C24.2421 0.646875 24.228 0.9375 24.0734 1.16719ZM20.45 15.75C20.45 20.3062 16.7563 24 12.2002 24C7.64405 24 3.95039 20.3062 3.95039 15.75C3.95039 11.1938 7.64405 7.5 12.2002 7.5C16.7563 7.5 20.45 11.1938 20.45 15.75ZM12.5939 11.3016C12.4346 10.9734 11.9705 10.9734 11.8065 11.3016L10.7565 13.4297C10.6909 13.5609 10.569 13.65 10.4284 13.6688L8.07529 14.0109C7.71437 14.0625 7.57374 14.5031 7.83155 14.7609L9.53307 16.4203C9.6362 16.5234 9.68307 16.6641 9.65963 16.8094L9.25652 19.1484C9.19558 19.5047 9.57057 19.7812 9.894 19.6125L11.994 18.5062C12.1205 18.4406 12.2752 18.4406 12.4018 18.5062L14.5017 19.6125C14.8251 19.7812 15.2001 19.5094 15.1392 19.1484L14.7361 16.8094C14.7126 16.6688 14.7595 16.5234 14.8626 16.4203L16.5642 14.7609C16.8266 14.5078 16.6813 14.0672 16.3204 14.0109L13.972 13.6688C13.8314 13.65 13.7048 13.5562 13.6439 13.4297L12.5939 11.3016Z" fill="#F0BB00"/>
</svg>
