<svg width="29" height="24" viewBox="0 0 29 24" fill="none" xmlns="http://www.w3.org/2000/svg">
<path fill-rule="evenodd" clip-rule="evenodd" d="M27.6127 16.125H26.9252V11.4801C26.9252 10.9344 26.7061 10.4101 26.3194 10.0234L22.0268 5.73083C21.6401 5.34411 21.1159 5.12499 20.5702 5.12499H18.6753V3.06249C18.6753 1.92383 17.7514 1 16.6128 1H2.86279C1.72412 1 0.800293 1.92383 0.800293 3.06249V16.8125C0.800293 17.9511 1.72412 18.875 2.86279 18.875H3.55029C3.55029 21.1523 5.39794 22.9999 7.67528 22.9999C9.95261 22.9999 11.8003 21.1523 11.8003 18.875H17.3003C17.3003 21.1523 19.1479 22.9999 21.4252 22.9999C23.7026 22.9999 25.5502 21.1523 25.5502 18.875H27.6127C27.9908 18.875 28.3002 18.5656 28.3002 18.1875V16.8125C28.3002 16.4343 27.9908 16.125 27.6127 16.125ZM7.67528 20.9375C6.53661 20.9375 5.61278 20.0136 5.61278 18.875C5.61278 17.7363 6.53661 16.8125 7.67528 16.8125C8.81395 16.8125 9.73777 17.7363 9.73777 18.875C9.73777 20.0136 8.81395 20.9375 7.67528 20.9375ZM21.4252 20.9375C20.2866 20.9375 19.3627 20.0136 19.3627 18.875C19.3627 17.7363 20.2866 16.8125 21.4252 16.8125C22.5639 16.8125 23.4877 17.7363 23.4877 18.875C23.4877 20.0136 22.5639 20.9375 21.4252 20.9375ZM24.8627 12H18.6753V7.18749H20.5702L24.8627 11.4801V12Z" fill="#F06638"/>
</svg>
